<mxfile host="app.diagrams.net" modified="2023-05-26T03:07:49.704Z" agent="Mozilla/5.0 (Windows NT 10.0; Win64; x64) AppleWebKit/537.36 (KHTML, like Gecko) Chrome/113.0.0.0 Safari/537.36 Edg/113.0.1774.50" version="21.3.4" etag="pkANiX6aiAVb3uhA_xXI" type="github">
  <diagram name="Page-1" id="JDKDACDVasTe4a09hDDt">
    <mxGraphModel>
      <root>
        <mxCell id="0" />
        <mxCell id="1" parent="0" />
      </root>
    </mxGraphModel>
  </diagram>
</mxfile>
